<svg id="Calque_1" data-name="Calque 1" xmlns="http://www.w3.org/2000/svg" viewBox="0 0 23.68 23.68"><defs><style>.cls-1{fill:#ff6c4d;}.cls-2{fill:none;stroke:#ff6c4d;stroke-width:3px;}.cls-3{fill:#fff;fill-rule:evenodd;}</style></defs><title>tick</title><path class="cls-1" d="M18.09,18.09a8.84,8.84,0,1,1,0-12.5A8.84,8.84,0,0,1,18.09,18.09Z"/><path class="cls-2" d="M4.53,19.15a10.34,10.34,0,1,0,0-14.62A10.33,10.33,0,0,0,4.53,19.15Z"/><path class="cls-3" d="M17.89,8.1a1.44,1.44,0,0,0-2,0l-5.4,5.41L7.78,10.83a1.42,1.42,0,0,0-2,2l3.69,3.7a1.44,1.44,0,0,0,2,0l6.41-6.42A1.42,1.42,0,0,0,17.89,8.1Z"/></svg>